<svg width="18" height="16" viewBox="0 0 18 16" fill="none" xmlns="http://www.w3.org/2000/svg">
<circle cx="8" cy="8" r="8" fill="white"/>
<path d="M3.79261 11V4.45455H4.58523V7.36932H8.07528V4.45455H8.8679V11H8.07528V8.07244H4.58523V11H3.79261Z" fill="black"/>
<path d="M12.5385 6.09091V6.73011H9.89222V6.09091H12.5385ZM10.6848 11V5.41335C10.6848 5.1321 10.7509 4.89773 10.883 4.71023C11.0151 4.52273 11.1866 4.3821 11.3975 4.28835C11.6085 4.1946 11.8311 4.14773 12.0655 4.14773C12.2509 4.14773 12.4022 4.16264 12.5194 4.19247C12.6365 4.2223 12.7239 4.25 12.7814 4.27557L12.5641 4.92756C12.5257 4.91477 12.4725 4.89879 12.4043 4.87962C12.3382 4.86044 12.2509 4.85085 12.1422 4.85085C11.8929 4.85085 11.7129 4.91371 11.6021 5.03942C11.4934 5.16513 11.4391 5.34943 11.4391 5.59233V11H10.6848Z" fill="#FF6E05"/>
</svg>
